<svg xmlns="http://www.w3.org/2000/svg" width="512" height="1024"><defs><linearGradient id="shade"><stop stop-color="#344c43"/><stop offset=".45" stop-color="#4c6658"/><stop offset="1" stop-color="#344c43"/></linearGradient></defs><path d="M42 1024L16 947 39 851 9 767 36 693 17 601 40 515 15 439 33 359 15 251 49 158 26 94 68 25 164 39 235 6 328 35 409 19 483 78 470 171 496 265 476 347 499 451 476 541 492 627 476 724 502 815 479 907 494 1024Z" fill="url(#shade)"/><path d="M60 55l-33 55-21 72 39 56" fill="none" stroke="#344c43" stroke-width="7"/><path d="M153 130l48 55-21 72 39 56" fill="none" stroke="#344c43" stroke-width="7"/><path d="M246 205l-33 55-21 72 39 56" fill="none" stroke="#344c43" stroke-width="7"/><path d="M339 280l48 55-21 72 39 56" fill="none" stroke="#344c43" stroke-width="7"/><path d="M62 355l-33 55-21 72 39 56" fill="none" stroke="#344c43" stroke-width="7"/><path d="M155 430l48 55-21 72 39 56" fill="none" stroke="#344c43" stroke-width="7"/><path d="M248 505l-33 55-21 72 39 56" fill="none" stroke="#344c43" stroke-width="7"/><path d="M341 580l48 55-21 72 39 56" fill="none" stroke="#344c43" stroke-width="7"/><path d="M64 655l-33 55-21 72 39 56" fill="none" stroke="#344c43" stroke-width="7"/><path d="M157 730l48 55-21 72 39 56" fill="none" stroke="#344c43" stroke-width="7"/><path d="M250 805l-33 55-21 72 39 56" fill="none" stroke="#344c43" stroke-width="7"/><path d="M343 880l48 55-21 72 39 56" fill="none" stroke="#344c43" stroke-width="7"/><path d="M66 955l-33 55-21 72 39 56" fill="none" stroke="#344c43" stroke-width="7"/></svg>