<svg xmlns="http://www.w3.org/2000/svg" width="480" height="240" viewBox="0 0 480 240"><path d="M0 4H480V43H461V237H392V110Q392 63 354 63T316 110V237H164V110Q164 63 126 63T88 110V237H18V43H0Z" fill="#69728d" stroke="#293642" stroke-width="3" stroke-linejoin="round"/><rect x="0" y="2" width="480" height="11" fill="#e8dab3"/><rect x="0" y="17" width="480" height="13" fill="#a4aabd"/><path d="M0 45h48m-24 0v24" fill="none" stroke="#a4aabd" stroke-width="2" stroke-linejoin="round"/><path d="M54 45h48m-24 0v24" fill="none" stroke="#a4aabd" stroke-width="2" stroke-linejoin="round"/><path d="M216 45h48m-24 0v24" fill="none" stroke="#a4aabd" stroke-width="2" stroke-linejoin="round"/><path d="M270 45h48m-24 0v24" fill="none" stroke="#a4aabd" stroke-width="2" stroke-linejoin="round"/><path d="M432 45h48m-24 0v24" fill="none" stroke="#a4aabd" stroke-width="2" stroke-linejoin="round"/><path d="M0 80h48m-24 0v24" fill="none" stroke="#a4aabd" stroke-width="2" stroke-linejoin="round"/><path d="M54 80h48m-24 0v24" fill="none" stroke="#a4aabd" stroke-width="2" stroke-linejoin="round"/><path d="M216 80h48m-24 0v24" fill="none" stroke="#a4aabd" stroke-width="2" stroke-linejoin="round"/><path d="M270 80h48m-24 0v24" fill="none" stroke="#a4aabd" stroke-width="2" stroke-linejoin="round"/><path d="M432 80h48m-24 0v24" fill="none" stroke="#a4aabd" stroke-width="2" stroke-linejoin="round"/><path d="M0 115h48m-24 0v24" fill="none" stroke="#a4aabd" stroke-width="2" stroke-linejoin="round"/><path d="M54 115h48m-24 0v24" fill="none" stroke="#a4aabd" stroke-width="2" stroke-linejoin="round"/><path d="M216 115h48m-24 0v24" fill="none" stroke="#a4aabd" stroke-width="2" stroke-linejoin="round"/><path d="M270 115h48m-24 0v24" fill="none" stroke="#a4aabd" stroke-width="2" stroke-linejoin="round"/><path d="M432 115h48m-24 0v24" fill="none" stroke="#a4aabd" stroke-width="2" stroke-linejoin="round"/><path d="M0 150h48m-24 0v24" fill="none" stroke="#a4aabd" stroke-width="2" stroke-linejoin="round"/><path d="M54 150h48m-24 0v24" fill="none" stroke="#a4aabd" stroke-width="2" stroke-linejoin="round"/><path d="M216 150h48m-24 0v24" fill="none" stroke="#a4aabd" stroke-width="2" stroke-linejoin="round"/><path d="M270 150h48m-24 0v24" fill="none" stroke="#a4aabd" stroke-width="2" stroke-linejoin="round"/><path d="M432 150h48m-24 0v24" fill="none" stroke="#a4aabd" stroke-width="2" stroke-linejoin="round"/><path d="M0 185h48m-24 0v24" fill="none" stroke="#a4aabd" stroke-width="2" stroke-linejoin="round"/><path d="M54 185h48m-24 0v24" fill="none" stroke="#a4aabd" stroke-width="2" stroke-linejoin="round"/><path d="M216 185h48m-24 0v24" fill="none" stroke="#a4aabd" stroke-width="2" stroke-linejoin="round"/><path d="M270 185h48m-24 0v24" fill="none" stroke="#a4aabd" stroke-width="2" stroke-linejoin="round"/><path d="M432 185h48m-24 0v24" fill="none" stroke="#a4aabd" stroke-width="2" stroke-linejoin="round"/><path d="M0 220h48m-24 0v24" fill="none" stroke="#a4aabd" stroke-width="2" stroke-linejoin="round"/><path d="M54 220h48m-24 0v24" fill="none" stroke="#a4aabd" stroke-width="2" stroke-linejoin="round"/><path d="M216 220h48m-24 0v24" fill="none" stroke="#a4aabd" stroke-width="2" stroke-linejoin="round"/><path d="M270 220h48m-24 0v24" fill="none" stroke="#a4aabd" stroke-width="2" stroke-linejoin="round"/><path d="M432 220h48m-24 0v24" fill="none" stroke="#a4aabd" stroke-width="2" stroke-linejoin="round"/><rect x="24" y="45" width="26" height="160" fill="#a4aabd"/><rect x="19" y="42" width="36" height="11" fill="#e8dab3"/><rect x="224" y="45" width="26" height="160" fill="#a4aabd"/><rect x="219" y="42" width="36" height="11" fill="#e8dab3"/><rect x="424" y="45" width="26" height="160" fill="#a4aabd"/><rect x="419" y="42" width="36" height="11" fill="#e8dab3"/><path d="M238 63h43v93l-21-16-22 16Z" fill="#b17b90" stroke="#293642" stroke-width="3" stroke-linejoin="round"/><path d="M248 73l12 12 12-12-12 30Z" fill="#e8dab3" stroke="none" stroke-width="3" stroke-linejoin="round"/><rect x="0" y="0" width="480" height="3" fill="#e8dab3"/></svg>