<svg xmlns="http://www.w3.org/2000/svg" width="600" height="600" viewBox="0 0 600 600"><path d="M120 565V480L205 440 223 260 185 197 233 136 236 65 300 30 364 65 367 136 415 197 377 260 395 440 480 480V565Z" fill="#887ca7" stroke="#293642" stroke-width="3" stroke-linejoin="round"/><path d="M236 65L300 30 364 65 350 125 300 146 250 125Z" fill="#bcb2d6" stroke="#293642" stroke-width="3" stroke-linejoin="round"/><path d="M263 98h16m42 0h16" fill="none" stroke="#f7dfab" stroke-width="6" stroke-linejoin="round"/><path d="M223 260l77 80 77-80M300 146v194" fill="none" stroke="#4e496d" stroke-width="8" stroke-linejoin="round"/><circle cx="300" cy="225" r="35" fill="#4e496d"/><path d="M300 191l20 34-20 34-20-34Z" fill="#f7dfab" stroke="none" stroke-width="3" stroke-linejoin="round"/></svg>