<?xml version="1.0" encoding="UTF-8"?>
<svg xmlns="http://www.w3.org/2000/svg" viewBox="0 0 200 200">
  <title>Illustration of a ripe banana</title>
  <defs>
    <linearGradient id="bananaPeel" x1="0%" y1="0%" x2="100%" y2="100%">
      <stop offset="0%" stop-color="#fff6a3" />
      <stop offset="45%" stop-color="#ffe066" />
      <stop offset="100%" stop-color="#f7b733" />
    </linearGradient>
    <radialGradient id="bananaShadow" cx="50%" cy="50%" r="55%">
      <stop offset="0%" stop-color="rgba(0,0,0,0.25)" />
      <stop offset="100%" stop-color="rgba(0,0,0,0)" />
    </radialGradient>
  </defs>
  <ellipse cx="110" cy="150" rx="70" ry="20" fill="url(#bananaShadow)" />
  <path
    d="M30 40c15 90 70 120 130 120 5 0 6-6 2-8-28-16-50-52-53-88-1-10-1-20 1-30-7 1-16 5-28 12-17 11-34 13-46 10z"
    fill="url(#bananaPeel)"
    stroke="#d29922"
    stroke-width="6"
    stroke-linecap="round"
    stroke-linejoin="round"
  />
  <path
    d="M147 147c7 4 17 6 27 5"
    fill="none"
    stroke="#c8831f"
    stroke-width="6"
    stroke-linecap="round"
  />
  <path
    d="M106 36c-4-4-6-8-6-12 0-6 4-10 10-10 4 0 8 2 10 6 3 4 4 9 4 15"
    fill="none"
    stroke="#6a4b1c"
    stroke-width="6"
    stroke-linecap="round"
    stroke-linejoin="round"
  />
</svg>
