<svg xmlns="http://www.w3.org/2000/svg" width="112" height="20" viewBox="0 0 112 20" shape-rendering="crispEdges"><g transform="translate(0 0)"><rect x="3" y="1" width="8" height="4" fill="#25232c"/><rect x="2" y="4" width="10" height="5" fill="#d6cec1"/><rect x="1" y="8" width="12" height="8" fill="#f2a33b"/><rect x="2" y="16" width="4" height="4" fill="#15131a"/><rect x="8" y="16" width="4" height="4" fill="#15131a"/></g><g transform="translate(14 0)"><rect x="3" y="1" width="8" height="4" fill="#25232c"/><rect x="2" y="4" width="10" height="5" fill="#d6cec1"/><rect x="1" y="8" width="12" height="8" fill="#59b8ca"/><rect x="2" y="16" width="4" height="4" fill="#15131a"/><rect x="8" y="16" width="4" height="4" fill="#15131a"/></g><g transform="translate(28 0)"><rect x="3" y="1" width="8" height="4" fill="#25232c"/><rect x="2" y="4" width="10" height="5" fill="#d6cec1"/><rect x="1" y="8" width="12" height="8" fill="#d45f4b"/><rect x="2" y="16" width="4" height="4" fill="#15131a"/><rect x="8" y="16" width="4" height="4" fill="#15131a"/></g><g transform="translate(42 0)"><rect x="3" y="1" width="8" height="4" fill="#25232c"/><rect x="2" y="4" width="10" height="5" fill="#d6cec1"/><rect x="1" y="8" width="12" height="8" fill="#8bc45f"/><rect x="2" y="16" width="4" height="4" fill="#15131a"/><rect x="8" y="16" width="4" height="4" fill="#15131a"/></g><g transform="translate(56 0)"><rect x="3" y="1" width="8" height="4" fill="#25232c"/><rect x="2" y="4" width="10" height="5" fill="#d6cec1"/><rect x="1" y="8" width="12" height="8" fill="#b46ed3"/><rect x="2" y="16" width="4" height="4" fill="#15131a"/><rect x="8" y="16" width="4" height="4" fill="#15131a"/></g><g transform="translate(70 0)"><rect x="3" y="1" width="8" height="4" fill="#25232c"/><rect x="2" y="4" width="10" height="5" fill="#d6cec1"/><rect x="1" y="8" width="12" height="8" fill="#dac55e"/><rect x="2" y="16" width="4" height="4" fill="#15131a"/><rect x="8" y="16" width="4" height="4" fill="#15131a"/></g><g transform="translate(84 0)"><rect x="3" y="1" width="8" height="4" fill="#25232c"/><rect x="2" y="4" width="10" height="5" fill="#d6cec1"/><rect x="1" y="8" width="12" height="8" fill="#627fce"/><rect x="2" y="16" width="4" height="4" fill="#15131a"/><rect x="8" y="16" width="4" height="4" fill="#15131a"/></g><g transform="translate(98 0)"><rect x="3" y="1" width="8" height="4" fill="#25232c"/><rect x="2" y="4" width="10" height="5" fill="#d6cec1"/><rect x="1" y="8" width="12" height="8" fill="#d377a5"/><rect x="2" y="16" width="4" height="4" fill="#15131a"/><rect x="8" y="16" width="4" height="4" fill="#15131a"/></g></svg>