<svg xmlns="http://www.w3.org/2000/svg" width="1600" height="1000" viewBox="0 0 1600 1000"><defs><linearGradient id="sky" x2="0" y2="1"><stop stop-color="#101c3c"/><stop offset=".45" stop-color="#657f9c"/><stop offset="1" stop-color="#d6c6a7"/></linearGradient></defs><rect x="0" y="0" width="1600" height="1000" fill="url(#sky)"/><circle cx="0" cy="20" r="2" fill="#e4e4d4"/><circle cx="283" cy="117" r="1" fill="#e4e4d4"/><circle cx="566" cy="214" r="1" fill="#e4e4d4"/><circle cx="849" cy="311" r="2" fill="#e4e4d4"/><circle cx="1132" cy="408" r="1" fill="#e4e4d4"/><circle cx="1415" cy="35" r="1" fill="#e4e4d4"/><circle cx="98" cy="132" r="2" fill="#e4e4d4"/><circle cx="381" cy="229" r="1" fill="#e4e4d4"/><circle cx="664" cy="326" r="1" fill="#e4e4d4"/><circle cx="947" cy="423" r="2" fill="#e4e4d4"/><circle cx="1230" cy="50" r="1" fill="#e4e4d4"/><circle cx="1513" cy="147" r="1" fill="#e4e4d4"/><circle cx="196" cy="244" r="2" fill="#e4e4d4"/><circle cx="479" cy="341" r="1" fill="#e4e4d4"/><circle cx="762" cy="438" r="1" fill="#e4e4d4"/><circle cx="1045" cy="65" r="2" fill="#e4e4d4"/><circle cx="1328" cy="162" r="1" fill="#e4e4d4"/><circle cx="11" cy="259" r="1" fill="#e4e4d4"/><circle cx="294" cy="356" r="2" fill="#e4e4d4"/><circle cx="577" cy="453" r="1" fill="#e4e4d4"/><circle cx="860" cy="80" r="1" fill="#e4e4d4"/><circle cx="1143" cy="177" r="2" fill="#e4e4d4"/><circle cx="1426" cy="274" r="1" fill="#e4e4d4"/><circle cx="109" cy="371" r="1" fill="#e4e4d4"/><circle cx="392" cy="468" r="2" fill="#e4e4d4"/><circle cx="675" cy="95" r="1" fill="#e4e4d4"/><circle cx="958" cy="192" r="1" fill="#e4e4d4"/><circle cx="1241" cy="289" r="2" fill="#e4e4d4"/><circle cx="1524" cy="386" r="1" fill="#e4e4d4"/><circle cx="207" cy="483" r="1" fill="#e4e4d4"/><circle cx="490" cy="110" r="2" fill="#e4e4d4"/><circle cx="773" cy="207" r="1" fill="#e4e4d4"/><circle cx="1056" cy="304" r="1" fill="#e4e4d4"/><circle cx="1339" cy="401" r="2" fill="#e4e4d4"/><circle cx="22" cy="28" r="1" fill="#e4e4d4"/><circle cx="305" cy="125" r="1" fill="#e4e4d4"/><circle cx="588" cy="222" r="2" fill="#e4e4d4"/><circle cx="871" cy="319" r="1" fill="#e4e4d4"/><circle cx="1154" cy="416" r="1" fill="#e4e4d4"/><circle cx="1437" cy="43" r="2" fill="#e4e4d4"/><circle cx="120" cy="140" r="1" fill="#e4e4d4"/><circle cx="403" cy="237" r="1" fill="#e4e4d4"/><circle cx="686" cy="334" r="2" fill="#e4e4d4"/><circle cx="969" cy="431" r="1" fill="#e4e4d4"/><circle cx="1252" cy="58" r="1" fill="#e4e4d4"/><circle cx="1535" cy="155" r="2" fill="#e4e4d4"/><circle cx="218" cy="252" r="1" fill="#e4e4d4"/><circle cx="501" cy="349" r="1" fill="#e4e4d4"/><circle cx="784" cy="446" r="2" fill="#e4e4d4"/><circle cx="1067" cy="73" r="1" fill="#e4e4d4"/><circle cx="1350" cy="170" r="1" fill="#e4e4d4"/><circle cx="33" cy="267" r="2" fill="#e4e4d4"/><circle cx="316" cy="364" r="1" fill="#e4e4d4"/><circle cx="599" cy="461" r="1" fill="#e4e4d4"/><circle cx="882" cy="88" r="2" fill="#e4e4d4"/><circle cx="1165" cy="185" r="1" fill="#e4e4d4"/><circle cx="1448" cy="282" r="1" fill="#e4e4d4"/><circle cx="131" cy="379" r="2" fill="#e4e4d4"/><circle cx="414" cy="476" r="1" fill="#e4e4d4"/><circle cx="697" cy="103" r="1" fill="#e4e4d4"/><circle cx="980" cy="200" r="2" fill="#e4e4d4"/><circle cx="1263" cy="297" r="1" fill="#e4e4d4"/><circle cx="1546" cy="394" r="1" fill="#e4e4d4"/><circle cx="229" cy="21" r="2" fill="#e4e4d4"/><circle cx="512" cy="118" r="1" fill="#e4e4d4"/><circle cx="1230" cy="170" r="51" fill="#e4dfc3"/><path d="M0 1000V720L160 420 245 640 440 280 630 690 840 430 1010 710 1190 360 1420 680 1600 420V1000Z" fill="#788e9d" stroke="none" stroke-width="3" stroke-linejoin="round"/><path d="M0 1000V785L160 525 245 702 440 405 630 755 840 520 1010 775 1190 470 1420 745 1600 540V1000Z" fill="#576f80" stroke="none" stroke-width="3" stroke-linejoin="round"/><path d="M0 1000V850L160 630 245 764 440 530 630 820 840 610 1010 840 1190 580 1420 810 1600 660V1000Z" fill="#344f60" stroke="none" stroke-width="3" stroke-linejoin="round"/></svg>